<svg xmlns="http://www.w3.org/2000/svg" width="20" height="20" viewBox="0 0 24 24" fill="none">
    <g clip-path="url(#clip0_270607_19747)">
        <path d="M0 12C0 14.36 0.681135 16.56 1.84307 18.4H22.1569C23.3189 16.56 24 14.36 24 12C24 9.64 23.3189 7.44 22.1569 5.6H1.84307C0.681135 7.44 0 9.64 0 12Z" fill="#FFCE31" />
        <path d="M22.197 5.6C20.0735 2.24 16.3072 0 12.02 0C7.73289 0 3.96661 2.24 1.84307 5.6H22.197ZM1.84307 18.4C3.96661 21.76 7.73289 24 12.02 24C16.3072 24 20.0735 21.76 22.197 18.4H1.84307Z" fill="#D80027" />
        <path d="M2.88481 10.68H4.16694V11.4H2.88481V10.68ZM2.88481 15.96H4.20701V16.64H2.88481V15.96Z" fill="#C8B100" />
        <path d="M2.76461 14.84C2.64441 14.92 2.56427 15 2.56427 15.04C2.56427 15.08 2.60434 15.12 2.68447 15.16C2.76461 15.2 2.84474 15.28 2.80467 15.36C2.88481 15.28 2.92487 15.2 2.92487 15.12C2.92487 15 2.84474 14.88 2.76461 14.84Z" fill="#D80027" />
        <path d="M3.08514 11.4H4.00668V15.96H3.08514V11.4Z" fill="white" />
        <path d="M4.96828 13.08C4.76795 13 4.40735 12.92 4.00668 12.92C3.88648 12.92 3.72621 12.92 3.56594 12.96C3.00501 13.04 2.56427 13.28 2.60434 13.44L2.40401 13C2.36394 12.8 2.84474 12.56 3.44574 12.44C3.64608 12.4 3.84641 12.4 4.00668 12.4C4.40735 12.4 4.76795 12.44 4.96828 12.52V13.08Z" fill="#D80027" />
        <path d="M3.08514 13.68C2.84474 13.68 2.64441 13.6 2.64441 13.48C2.64441 13.4 2.72454 13.28 2.88481 13.2H3.12521L3.08514 13.68ZM4.00668 13.32C4.16694 13.36 4.28714 13.4 4.36728 13.44C4.40734 13.48 4.24708 13.64 4.00668 13.76V13.32Z" fill="#D80027" />
        <path d="M2.48414 14.56C2.44407 14.48 2.72454 14.32 3.08514 14.2C3.24541 14.16 3.36561 14.08 3.56594 14C4.04674 13.8 4.44741 13.52 4.36728 13.44L4.44741 13.92C4.48748 14 4.16694 14.24 3.68614 14.48C3.52588 14.56 3.24541 14.68 3.08514 14.72C2.80467 14.8 2.56427 14.96 2.56427 15L2.48414 14.56Z" fill="#D80027" />
        <path d="M11.4992 10.68H12.7813V11.4H11.4992V10.68ZM11.4591 15.96H12.7813V16.64H11.4591V15.96Z" fill="#C8B100" />
        <path d="M12.9015 14.84C13.0217 14.92 13.1018 15 13.1018 15.04C13.1018 15.08 13.0618 15.12 12.9816 15.16C12.9015 15.24 12.8214 15.36 12.8614 15.4C12.7813 15.32 12.7412 15.24 12.7412 15.16C12.7412 15 12.8214 14.88 12.9015 14.84Z" fill="#D80027" />
        <path d="M11.6594 11.4H12.581V15.96H11.6594V11.4Z" fill="white" />
        <path d="M10.6978 13.08C10.8982 13 11.2588 12.92 11.6594 12.92C11.7796 12.92 11.9399 12.92 12.1002 12.96C12.6611 13.04 13.1018 13.28 13.0618 13.44L13.2621 12.96C13.3022 12.76 12.8214 12.52 12.2204 12.4H11.6594C11.2588 12.4 10.8982 12.44 10.6978 12.52V13.08Z" fill="#D80027" />
        <path d="M12.581 13.68C12.8214 13.68 13.0217 13.6 13.0217 13.48C13.0217 13.4 12.9416 13.28 12.7813 13.2H12.5409L12.581 13.68ZM11.6594 13.32C11.4992 13.36 11.379 13.4 11.2988 13.44C11.2588 13.48 11.419 13.64 11.6594 13.76V13.32Z" fill="#D80027" />
        <path d="M13.182 14.56C13.222 14.48 12.9416 14.32 12.581 14.2C12.4207 14.16 12.3005 14.08 12.1002 14C11.6194 13.8 11.2187 13.52 11.2988 13.44L11.2187 13.92C11.1786 14 11.4992 14.24 11.98 14.48C12.1402 14.56 12.4207 14.68 12.581 14.72C12.8614 14.8 13.1018 15 13.0618 15.04L13.182 14.56ZM7.81302 8.12C8.57429 8.12 10.1369 8.28 10.6978 8.84C10.0968 10.28 9.13522 9.68 7.81302 9.68C6.53088 9.68 5.52922 10.28 4.92821 8.84C5.48915 8.28 7.01169 8.12 7.81302 8.12Z" fill="#D80027" />
        <path d="M9.77629 9.72C9.29549 9.44 8.57429 9.4 7.81302 9.4C7.05175 9.4 6.33055 9.48 5.84975 9.72L6.01002 10.4C6.45075 10.52 7.09182 10.6 7.81302 10.6C8.53422 10.6 9.13523 10.52 9.61603 10.4L9.77629 9.72ZM10.4574 8C10.2972 7.88 9.97663 7.76 9.69616 7.76C9.57596 7.76 9.45576 7.76 9.33556 7.8C9.33556 7.8 9.09516 7.48 8.53422 7.48C8.33389 7.48 8.17362 7.52 8.01336 7.6V7.56C7.97329 7.48 7.89315 7.4 7.81302 7.4C7.73289 7.4 7.61269 7.52 7.61269 7.6V7.64C7.45242 7.56 7.29215 7.52 7.09182 7.52C6.53088 7.52 6.29048 7.88 6.29048 7.84C6.17028 7.8 6.05008 7.8 5.92988 7.8C4.08681 7.8 5.00835 9.04 5.00835 9.04L5.20868 8.8C4.76795 8.24 5.16861 7.92 5.96995 7.92C6.09015 7.92 6.17028 7.92 6.25042 7.96C5.96995 8.36 6.49082 8.72 6.49082 8.72L6.61102 8.52C6.33055 8.32 6.29048 7.64 7.09182 7.64C7.29215 7.64 7.45242 7.68 7.61269 7.8C7.61269 7.84 7.57262 8.4 7.53255 8.48L7.85309 8.76L8.17362 8.48C8.13356 8.36 8.09349 7.84 8.09349 7.8C8.21369 7.72 8.41402 7.64 8.61436 7.64C9.45576 7.64 9.45576 8.32 9.09516 8.52L9.21536 8.72C9.21536 8.72 9.65609 8.36 9.45576 7.96C9.53589 7.96 9.65609 7.92 9.73623 7.92C10.6978 7.92 10.7379 8.64 10.4975 8.8L10.6578 9.04C10.5776 9.04 11.0184 8.48 10.4574 8Z" fill="#C8B100" />
        <path d="M7.57262 7.24C7.57262 7.12 7.69282 7 7.81302 7C7.97329 7 8.05342 7.12 8.05342 7.24C8.05342 7.36 7.93322 7.48 7.81302 7.48C7.69282 7.48 7.57262 7.36 7.57262 7.24Z" fill="#005BBF" />
        <path d="M7.73289 6.56V6.68H7.61269V6.8H7.73289V7.2H7.57262V7.32H8.05342L8.09349 7.24L8.05342 7.2H7.89315V6.8H8.01336V6.68H7.89315V6.56H7.73289Z" fill="#C8B100" />
        <path d="M7.81302 10.52C7.17195 10.52 6.61102 10.44 6.17028 10.32C6.61102 10.2 7.17195 10.12 7.81302 10.12C8.45409 10.12 9.01503 10.2 9.45576 10.32C9.05509 10.44 8.45409 10.52 7.81302 10.52Z" fill="#D80027" />
        <path d="M7.85309 17.44C7.09182 17.44 6.37062 17.24 5.72955 16.96C5.24875 16.72 4.96828 16.28 4.96828 15.76V13.84H10.7379V15.76C10.7379 16.28 10.4174 16.76 9.97663 16.96C9.33556 17.28 8.61436 17.44 7.85309 17.44ZM7.81302 10.64H10.6978V13.84H7.81302V10.64Z" fill="white" />
        <path d="M7.85309 15.76C7.85309 16.52 7.21202 17.12 6.41068 17.12C5.60935 17.12 4.96828 16.52 4.96828 15.76V13.84H7.85309V15.76Z" fill="#D80027" />
        <path d="M5.56928 16.88C5.64942 16.92 5.76962 17 5.92988 17.04V13.76H5.60935L5.56928 16.88ZM4.92821 15.72C4.92821 16.12 5.08848 16.44 5.24875 16.6V13.76H4.92821V15.72Z" fill="#C8B100" />
        <path d="M6.21035 17.12H6.53088V13.76H6.21035V17.12Z" fill="#C7B500" />
        <path d="M6.85142 17.04C6.97162 17 7.13189 16.92 7.21202 16.88V13.76H6.89149L6.85142 17.04Z" fill="#C8B100" />
        <path d="M4.92821 10.64H7.81302V13.84H4.92821V10.64Z" fill="#D80027" />
        <path d="M7.53255 16.6C7.69282 16.48 7.81302 16.2 7.85309 15.88V13.8H7.53255V16.6Z" fill="#C8B100" />
        <path d="M10.7379 13.84V15.76C10.7379 16.52 10.0968 17.12 9.29549 17.12C8.49416 17.12 7.85309 16.52 7.85309 15.76V13.84H10.7379ZM9.69616 11.2C9.81636 11.44 9.81636 12.04 9.45576 11.92C9.53589 11.96 9.57596 12.24 9.69616 12.4C9.89649 12.64 10.1369 12.44 10.0968 12.16C10.0167 11.72 10.0568 11.44 10.1369 11C10.1369 11.04 10.3372 11.04 10.4174 10.96C10.3773 11.08 10.3372 11.24 10.4174 11.24C10.3372 11.36 10.1369 11.56 10.0968 11.68C10.0568 11.96 10.4975 12.48 10.0167 12.6C9.69616 12.68 9.89649 12.92 10.0167 13.04C10.0167 13.04 9.85643 13.56 9.93656 13.52C9.61602 13.64 9.69616 13.36 9.69616 13.36C9.85643 12.88 9.41569 12.84 9.45576 12.76C9.05509 12.72 9.49582 13.12 9.13522 13.12C9.05509 13.12 8.89482 13.2 8.89482 13.2C8.45409 13.16 8.69449 12.76 8.85476 12.8C8.97496 12.84 9.09516 13.04 9.09516 12.76C9.09516 12.76 8.89482 12.44 9.41569 12.44C9.21536 12.44 9.09516 12.28 9.01502 12.08C8.93489 12.12 8.81469 12.32 8.37396 12.36C8.37396 12.36 8.25376 11.92 8.37396 12C8.53422 12.08 8.61436 12.08 8.77462 11.92C8.69449 11.8 8.21369 11.64 8.29382 11.36C8.29382 11.28 8.53422 11.16 8.53422 11.16C8.49416 11.36 8.61436 11.56 8.85476 11.56C9.17529 11.6 9.05509 11.48 9.09516 11.4C9.13522 11.32 9.37563 11.44 9.29549 11.24C9.29549 11.2 9.01502 11.16 9.09516 11.04C9.25543 10.84 9.49583 11 9.69616 11.2ZM7.85309 17.04L7.77295 16.84L7.85309 16.6L7.93322 16.84L7.85309 17.04Z" fill="#D80027" />
        <path d="M5.80968 11.32V11.52H5.88982V11.68H5.68948V12.08H5.80968V12.96H5.56928V13.4H7.21202V12.96H7.01169V12.08H7.09182V11.68H6.89149V11.52H7.01169V11.32H6.61102V11.52H6.69115V11.68H6.49082V11.2H6.61102V11H6.17028V11.2H6.29048V11.68H6.09015V11.52H6.17028V11.32H5.80968ZM10.3372 16.24V14.24H8.25376V16.24L9.21536 16.68H9.33556L10.3372 16.24ZM9.21536 14.4V15.08L8.53422 14.4H9.21536ZM8.37396 14.44L9.17529 15.24L8.37396 16.04V14.44ZM8.45409 16.2L9.21536 15.44V16.56L8.45409 16.2ZM9.33556 16.52V15.4L10.0968 16.16L9.33556 16.52ZM10.177 16.04L9.37562 15.24L10.177 14.44V16.04ZM9.33556 14.4H10.0167L9.33556 15.08V14.4Z" fill="#C8B100" />
        <path d="M6.89149 13.8C6.89149 13.2 7.29215 12.76 7.81302 12.76C8.33389 12.76 8.73456 13.24 8.73456 13.8C8.73456 14.36 8.33389 14.84 7.81302 14.84C7.29215 14.84 6.89149 14.4 6.89149 13.8Z" fill="#D80027" />
        <path d="M7.17195 13.8C7.17195 13.36 7.45242 13.04 7.81302 13.04C8.17362 13.04 8.45409 13.4 8.45409 13.8C8.45409 14.24 8.17362 14.56 7.81302 14.56C7.49249 14.6 7.17195 14.24 7.17195 13.8Z" fill="#005BBF" />
        <path d="M7.53255 13.28L7.37229 13.72L7.49249 13.76L7.41235 13.92H7.65275L7.57262 13.76L7.69282 13.72L7.53255 13.28ZM8.13355 13.28L7.97329 13.72L8.09349 13.76L8.01336 13.92H8.25376L8.21369 13.76L8.33389 13.72L8.13355 13.28ZM7.85309 13.8L7.65275 14.24L7.77295 14.28L7.73289 14.44H7.93322L7.89315 14.28L8.01336 14.24L7.85309 13.8Z" fill="#C8B100" />
    </g>
    <defs>
        <clipPath id="clip0_270607_19747">
            <rect width="24" height="24" fill="white" />
        </clipPath>
    </defs>
</svg>